<?xml version="1.0" encoding="UTF-8"?>
<svg width="24px" height="24px" viewBox="0 0 24 24" stroke-width="1.5" fill="none" xmlns="http://www.w3.org/2000/svg" color="#000000">
  <path d="M2 14V10C2 9.44772 2.44772 9 3 9H5.69722C5.8945 9 6.08704 8.94156 6.25192 8.83205L12.4453 4.77539C13.1099 4.34292 14 4.8249 14 5.62062V18.3794C14 19.1751 13.1099 19.6571 12.4453 19.2246L6.25192 15.1679C6.08704 15.0584 5.8945 15 5.69722 15H3C2.44772 15 2 14.5523 2 14Z" stroke="#000000" stroke-width="1.5"/>
  <path d="M16.5 7.5C16.5 7.5 18 9 18 11.9999C18 14.9999 16.5 16.5 16.5 16.5" stroke="#000000" stroke-width="1.5" stroke-linecap="round" stroke-linejoin="round"/>
  <path d="M19.5 4.5C19.5 4.5 22.5 7 22.5 11.9999C22.5 16.9999 19.5 19.5 19.5 19.5" stroke="#000000" stroke-width="1.5" stroke-linecap="round" stroke-linejoin="round"/>
</svg> 